<svg version="1.2" xmlns="http://www.w3.org/2000/svg" viewBox="0 0 100 100" width="100" height="100">
	<title>Tik tak toe Game</title>
	<style>
		.s0 { fill: #3a4045 } 
		.s1 { fill: #5bebf1;stroke: #00ffff;stroke-width: 4 } 
		.s2 { fill: none;stroke: #00ffff;stroke-width: 7 } 
		.s3 { fill: #00ffff;stroke: #00ffff;stroke-width: 4 } 
	</style>
	<path id="Shape 4" class="s0" d="m0 20c0-11 9-20 20-20h60c11 0 20 9 20 20v60c0 11-9 20-20 20h-60c-11 0-20-9-20-20z"/>
	<path id="Shape 5" class="s1" d="m50 0v100"/>
	<path id="Shape 5 copy" class="s1" d="m100 50h-100"/>
	<g id="Folder 1">
		<path id="Shape 5 copy 3" class="s2" d="m88 37l-26-26"/>
		<path id="Shape 5 copy 4" class="s2" d="m62 37l26-26"/>
	</g>
	<g id="Folder 1 copy">
		<path id="Shape 5 copy 3" class="s2" d="m39 87l-26-26"/>
		<path id="Shape 5 copy 4" class="s2" d="m13 87l26-26"/>
	</g>
	<path id="Shape 6" class="s3" d="m25 36c-6.6 0-12-5.4-12-12 0-6.6 5.4-12 12-12 6.6 0 12 5.4 12 12 0 6.6-5.4 12-12 12z"/>
	<path id="Shape 6 copy" class="s3" d="m75 86c-6.6 0-12-5.4-12-12 0-6.6 5.4-12 12-12 6.6 0 12 5.4 12 12 0 6.6-5.4 12-12 12z"/>
</svg>